<svg id="pcb-logo" viewBox="0 0 200 80" class="w-[400px] h-auto" xmlns="http://www.w3.org/2000/svg"><defs><pattern id="grid" width="10" height="10" patternUnits="userSpaceOnUse"><circle cx="5" cy="5" r="0.5" fill="#10b981" opacity="0.2"/></pattern></defs><rect width="200" height="80" fill="url(#grid)"/><path d="M 10 40 L 30 40 M 170 40 L 190 40" stroke="#10b981" stroke-width="1.5" fill="none" opacity="0.6"/><circle cx="30" cy="40" r="2" fill="#10b981" opacity="0.6"/><circle cx="170" cy="40" r="2" fill="#10b981" opacity="0.6"/><path d="M 40 15 L 60 15 L 60 25" stroke="#10b981" stroke-width="1" fill="none" opacity="0.4"/><circle cx="40" cy="15" r="1.5" fill="#10b981" opacity="0.4"/><path d="M 140 65 L 160 65 L 160 55" stroke="#10b981" stroke-width="1" fill="none" opacity="0.4"/><circle cx="160" cy="65" r="1.5" fill="#10b981" opacity="0.4"/><g><rect x="35" y="12" width="130" height="56" fill="none" stroke="#10b981" stroke-width="2" rx="3"/><circle cx="35" cy="12" r="2" fill="#10b981"/><circle cx="165" cy="12" r="2" fill="#10b981"/><circle cx="35" cy="68" r="2" fill="#10b981"/><circle cx="165" cy="68" r="2" fill="#10b981"/><text x="100" y="33" text-anchor="middle" fill="#10b981" font-size="16" font-family="monospace" font-weight="bold" letter-spacing="1">KIGAN'S</text><line x1="50" y1="42" x2="150" y2="42" stroke="#10b981" stroke-width="0.5" opacity="0.5"/><g transform="translate(70, 48)"><rect x="0" y="0" width="6" height="6" fill="none" stroke="#10b981" stroke-width="0.8"/><line x1="3" y1="0" x2="3" y2="-3" stroke="#10b981" stroke-width="0.8"/><line x1="6" y1="3" x2="9" y2="3" stroke="#10b981" stroke-width="0.8"/><circle cx="3" cy="-3" r="1" fill="#10b981"/><circle cx="9" cy="3" r="1" fill="#10b981"/></g><text x="100" y="58" text-anchor="middle" fill="#10b981" font-size="12" font-family="monospace" font-weight="bold" letter-spacing="2">LIFEBOARD</text><g transform="translate(124, 48)"><rect x="0" y="0" width="6" height="6" fill="none" stroke="#10b981" stroke-width="0.8"/><line x1="3" y1="6" x2="3" y2="9" stroke="#10b981" stroke-width="0.8"/><line x1="0" y1="3" x2="-3" y2="3" stroke="#10b981" stroke-width="0.8"/><circle cx="3" cy="9" r="1" fill="#10b981"/><circle cx="-3" cy="3" r="1" fill="#10b981"/></g></g></svg>