%TF.GenerationSoftware,KiCad,Pcbnew,9.0.6*%
%TF.CreationDate,2025-12-07T01:16:21-05:00*%
%TF.ProjectId,Kigan's Lifeboard,4b696761-6e27-4732-904c-696665626f61,rev?*%
%TF.SameCoordinates,Original*%
%TF.FileFunction,Copper,L2,Bot*%
%TF.FilePolarity,Positive*%
%FSLAX46Y46*%
G04 Gerber Fmt 4.6, Leading zero omitted, Abs format (unit mm)*
G04 Created by KiCad (PCBNEW 9.0.6) date 2025-12-07 01:16:21*
%MOMM*%
%LPD*%
G01*
G04 APERTURE LIST*
%TA.AperFunction,ComponentPad*%
%ADD10C,2.200000*%
%TD*%
%TA.AperFunction,ComponentPad*%
%ADD11R,2.000000X2.000000*%
%TD*%
%TA.AperFunction,ComponentPad*%
%ADD12C,2.000000*%
%TD*%
%TA.AperFunction,ComponentPad*%
%ADD13R,3.000000X2.500000*%
%TD*%
%TA.AperFunction,ComponentPad*%
%ADD14R,1.700000X1.700000*%
%TD*%
%TA.AperFunction,ComponentPad*%
%ADD15O,1.700000X1.700000*%
%TD*%
%TA.AperFunction,ComponentPad*%
%ADD16C,1.600000*%
%TD*%
%TA.AperFunction,ComponentPad*%
%ADD17C,1.524000*%
%TD*%
%TA.AperFunction,Conductor*%
%ADD18C,0.200000*%
%TD*%
G04 APERTURE END LIST*
D10*
%TO.P,SW3,1,1*%
%TO.N,Net-(U1-GPIO27_A1_D1)*%
X110999250Y-82424250D03*
%TO.P,SW3,2,2*%
%TO.N,GND*%
X104649250Y-84964250D03*
%TD*%
D11*
%TO.P,SW7,A,A*%
%TO.N,Net-(U1-GPIO3_D10_MOSI)*%
X120080000Y-108740000D03*
D12*
%TO.P,SW7,B,B*%
%TO.N,Net-(U1-GPIO4_D9_MISO)*%
X120080000Y-113740000D03*
%TO.P,SW7,C,C*%
%TO.N,Net-(SW5-PadC)*%
X120080000Y-111240000D03*
D13*
%TO.P,SW7,MP*%
%TO.N,N/C*%
X127580000Y-105640000D03*
X127580000Y-116840000D03*
D12*
%TO.P,SW7,S1*%
X134580000Y-108740000D03*
%TO.P,SW7,S2*%
X134580000Y-113740000D03*
%TD*%
D14*
%TO.P,J1,1,GND*%
%TO.N,Net-(J1-GND)*%
X131406750Y-90018000D03*
D15*
%TO.P,J1,2,VCC*%
%TO.N,Net-(J1-VCC)*%
X131406750Y-87478000D03*
%TO.P,J1,3,SCL*%
%TO.N,Net-(J1-SCL)*%
X131406750Y-84938000D03*
%TO.P,J1,4,SDA*%
%TO.N,Net-(J1-SDA)*%
X131406750Y-82398000D03*
%TD*%
D10*
%TO.P,SW2,1,1*%
%TO.N,Net-(U1-GPIO28_A2_D2)*%
X191961750Y-103855500D03*
%TO.P,SW2,2,2*%
%TO.N,GND*%
X185611750Y-106395500D03*
%TD*%
D16*
%TO.P,R2,1*%
%TO.N,Net-(J1-SDA)*%
X123699250Y-101791750D03*
%TO.P,R2,2*%
%TO.N,Net-(U1-GPIO6_D4_SDA)*%
X131319250Y-101791750D03*
%TD*%
D10*
%TO.P,SW1,1,1*%
%TO.N,Net-(U1-GPIO29_A3_D3)*%
X110999250Y-103855500D03*
%TO.P,SW1,2,2*%
%TO.N,GND*%
X104649250Y-106395500D03*
%TD*%
D11*
%TO.P,SW5,A,A*%
%TO.N,Net-(U1-GPIO2_D8_SCK)*%
X163060000Y-108640000D03*
D12*
%TO.P,SW5,B,B*%
%TO.N,Net-(U1-GPIO1_D7_CSn_RX)*%
X163060000Y-113640000D03*
%TO.P,SW5,C,C*%
%TO.N,Net-(SW5-PadC)*%
X163060000Y-111140000D03*
D13*
%TO.P,SW5,MP*%
%TO.N,N/C*%
X170560000Y-105540000D03*
X170560000Y-116740000D03*
D12*
%TO.P,SW5,S1*%
X177560000Y-108640000D03*
%TO.P,SW5,S2*%
X177560000Y-113640000D03*
%TD*%
D16*
%TO.P,R1,1*%
%TO.N,Net-(J1-SCL)*%
X166561750Y-101791750D03*
%TO.P,R1,2*%
%TO.N,Net-(U1-GPIO7_D5_SCL)*%
X174181750Y-101791750D03*
%TD*%
D10*
%TO.P,SW4,1,1*%
%TO.N,Net-(U1-GPIO26_A0_D0)*%
X191961750Y-82708000D03*
%TO.P,SW4,2,2*%
%TO.N,GND*%
X185611750Y-85248000D03*
%TD*%
D17*
%TO.P,U1,1,GPIO26_A0_D0*%
%TO.N,Net-(U1-GPIO26_A0_D0)*%
X156560500Y-116555500D03*
%TO.P,U1,2,GPIO27_A1_D1*%
%TO.N,Net-(U1-GPIO27_A1_D1)*%
X156560500Y-114015500D03*
%TO.P,U1,3,GPIO28_A2_D2*%
%TO.N,Net-(U1-GPIO28_A2_D2)*%
X156560500Y-111475500D03*
%TO.P,U1,4,GPIO29_A3_D3*%
%TO.N,Net-(U1-GPIO29_A3_D3)*%
X156560500Y-108935500D03*
%TO.P,U1,5,GPIO6_D4_SDA*%
%TO.N,Net-(U1-GPIO6_D4_SDA)*%
X156560500Y-106395500D03*
%TO.P,U1,6,GPIO7_D5_SCL*%
%TO.N,Net-(U1-GPIO7_D5_SCL)*%
X156560500Y-103855500D03*
%TO.P,U1,7,GPIO0_D6_TX*%
%TO.N,unconnected-(U1-GPIO0_D6_TX-Pad7)*%
X156560500Y-101315500D03*
%TO.P,U1,8,GPIO1_D7_CSn_RX*%
%TO.N,Net-(U1-GPIO1_D7_CSn_RX)*%
X141320500Y-101315500D03*
%TO.P,U1,9,GPIO2_D8_SCK*%
%TO.N,Net-(U1-GPIO2_D8_SCK)*%
X141320500Y-103855500D03*
%TO.P,U1,10,GPIO4_D9_MISO*%
%TO.N,Net-(U1-GPIO4_D9_MISO)*%
X141320500Y-106395500D03*
%TO.P,U1,11,GPIO3_D10_MOSI*%
%TO.N,Net-(U1-GPIO3_D10_MOSI)*%
X141320500Y-108935500D03*
%TO.P,U1,12,3V3*%
%TO.N,Net-(J1-VCC)*%
X141320500Y-111475500D03*
%TO.P,U1,13,GND*%
%TO.N,Net-(J1-GND)*%
X141320500Y-114015500D03*
%TO.P,U1,14,5V*%
%TO.N,+5V*%
X141320500Y-116555500D03*
%TD*%
D18*
%TO.N,Net-(J1-SDA)*%
X131406750Y-82398000D02*
X123699250Y-90105500D01*
X123699250Y-90105500D02*
X123699250Y-101791750D01*
%TO.N,Net-(U1-GPIO6_D4_SDA)*%
X156560500Y-106395500D02*
X155497500Y-105332500D01*
X155497500Y-105332500D02*
X134860000Y-105332500D01*
X134860000Y-105332500D02*
X131319250Y-101791750D01*
%TO.N,Net-(U1-GPIO2_D8_SCK)*%
X142396500Y-104931500D02*
X141320500Y-103855500D01*
X159361500Y-104931500D02*
X142396500Y-104931500D01*
X163246750Y-108816750D02*
X159361500Y-104931500D01*
%TO.N,Net-(SW5-PadC)*%
X120259250Y-111316750D02*
X139415500Y-111316750D01*
X141051250Y-112952500D02*
X161611000Y-112952500D01*
X139415500Y-111316750D02*
X141051250Y-112952500D01*
X161611000Y-112952500D02*
X163246750Y-111316750D01*
%TO.N,Net-(U1-GPIO4_D9_MISO)*%
X140277000Y-107439000D02*
X141320500Y-106395500D01*
X118779000Y-112439000D02*
X118779000Y-107439000D01*
X120080000Y-113740000D02*
X118779000Y-112439000D01*
X118779000Y-107439000D02*
X140277000Y-107439000D01*
%TO.N,Net-(U1-GPIO3_D10_MOSI)*%
X140215000Y-110041000D02*
X141320500Y-108935500D01*
X121381000Y-110041000D02*
X140215000Y-110041000D01*
X120080000Y-108740000D02*
X121381000Y-110041000D01*
%TD*%
M02*
