%TF.GenerationSoftware,KiCad,Pcbnew,9.0.6*%
%TF.CreationDate,2025-12-07T01:16:21-05:00*%
%TF.ProjectId,Kigan's Lifeboard,4b696761-6e27-4732-904c-696665626f61,rev?*%
%TF.SameCoordinates,Original*%
%TF.FileFunction,AssemblyDrawing,Top*%
%FSLAX46Y46*%
G04 Gerber Fmt 4.6, Leading zero omitted, Abs format (unit mm)*
G04 Created by KiCad (PCBNEW 9.0.6) date 2025-12-07 01:16:21*
%MOMM*%
%LPD*%
G01*
G04 APERTURE LIST*
%ADD10C,0.150000*%
%ADD11C,0.101600*%
%ADD12C,0.100000*%
%ADD13C,0.120000*%
%ADD14C,0.504000*%
G04 APERTURE END LIST*
D10*
X105411631Y-95785450D02*
X105554488Y-95833069D01*
X105554488Y-95833069D02*
X105792583Y-95833069D01*
X105792583Y-95833069D02*
X105887821Y-95785450D01*
X105887821Y-95785450D02*
X105935440Y-95737830D01*
X105935440Y-95737830D02*
X105983059Y-95642592D01*
X105983059Y-95642592D02*
X105983059Y-95547354D01*
X105983059Y-95547354D02*
X105935440Y-95452116D01*
X105935440Y-95452116D02*
X105887821Y-95404497D01*
X105887821Y-95404497D02*
X105792583Y-95356878D01*
X105792583Y-95356878D02*
X105602107Y-95309259D01*
X105602107Y-95309259D02*
X105506869Y-95261640D01*
X105506869Y-95261640D02*
X105459250Y-95214021D01*
X105459250Y-95214021D02*
X105411631Y-95118783D01*
X105411631Y-95118783D02*
X105411631Y-95023545D01*
X105411631Y-95023545D02*
X105459250Y-94928307D01*
X105459250Y-94928307D02*
X105506869Y-94880688D01*
X105506869Y-94880688D02*
X105602107Y-94833069D01*
X105602107Y-94833069D02*
X105840202Y-94833069D01*
X105840202Y-94833069D02*
X105983059Y-94880688D01*
X106316393Y-94833069D02*
X106554488Y-95833069D01*
X106554488Y-95833069D02*
X106744964Y-95118783D01*
X106744964Y-95118783D02*
X106935440Y-95833069D01*
X106935440Y-95833069D02*
X107173536Y-94833069D01*
X107316393Y-95928307D02*
X108078297Y-95928307D01*
X108316393Y-95833069D02*
X108316393Y-94833069D01*
X108316393Y-94833069D02*
X108697345Y-94833069D01*
X108697345Y-94833069D02*
X108792583Y-94880688D01*
X108792583Y-94880688D02*
X108840202Y-94928307D01*
X108840202Y-94928307D02*
X108887821Y-95023545D01*
X108887821Y-95023545D02*
X108887821Y-95166402D01*
X108887821Y-95166402D02*
X108840202Y-95261640D01*
X108840202Y-95261640D02*
X108792583Y-95309259D01*
X108792583Y-95309259D02*
X108697345Y-95356878D01*
X108697345Y-95356878D02*
X108316393Y-95356878D01*
X109744964Y-95166402D02*
X109744964Y-95833069D01*
X109316393Y-95166402D02*
X109316393Y-95690211D01*
X109316393Y-95690211D02*
X109364012Y-95785450D01*
X109364012Y-95785450D02*
X109459250Y-95833069D01*
X109459250Y-95833069D02*
X109602107Y-95833069D01*
X109602107Y-95833069D02*
X109697345Y-95785450D01*
X109697345Y-95785450D02*
X109744964Y-95737830D01*
X110173536Y-95785450D02*
X110268774Y-95833069D01*
X110268774Y-95833069D02*
X110459250Y-95833069D01*
X110459250Y-95833069D02*
X110554488Y-95785450D01*
X110554488Y-95785450D02*
X110602107Y-95690211D01*
X110602107Y-95690211D02*
X110602107Y-95642592D01*
X110602107Y-95642592D02*
X110554488Y-95547354D01*
X110554488Y-95547354D02*
X110459250Y-95499735D01*
X110459250Y-95499735D02*
X110316393Y-95499735D01*
X110316393Y-95499735D02*
X110221155Y-95452116D01*
X110221155Y-95452116D02*
X110173536Y-95356878D01*
X110173536Y-95356878D02*
X110173536Y-95309259D01*
X110173536Y-95309259D02*
X110221155Y-95214021D01*
X110221155Y-95214021D02*
X110316393Y-95166402D01*
X110316393Y-95166402D02*
X110459250Y-95166402D01*
X110459250Y-95166402D02*
X110554488Y-95214021D01*
X111030679Y-95833069D02*
X111030679Y-94833069D01*
X111459250Y-95833069D02*
X111459250Y-95309259D01*
X111459250Y-95309259D02*
X111411631Y-95214021D01*
X111411631Y-95214021D02*
X111316393Y-95166402D01*
X111316393Y-95166402D02*
X111173536Y-95166402D01*
X111173536Y-95166402D02*
X111078298Y-95214021D01*
X111078298Y-95214021D02*
X111030679Y-95261640D01*
X107125917Y-80037450D02*
X107268774Y-80085069D01*
X107268774Y-80085069D02*
X107506869Y-80085069D01*
X107506869Y-80085069D02*
X107602107Y-80037450D01*
X107602107Y-80037450D02*
X107649726Y-79989830D01*
X107649726Y-79989830D02*
X107697345Y-79894592D01*
X107697345Y-79894592D02*
X107697345Y-79799354D01*
X107697345Y-79799354D02*
X107649726Y-79704116D01*
X107649726Y-79704116D02*
X107602107Y-79656497D01*
X107602107Y-79656497D02*
X107506869Y-79608878D01*
X107506869Y-79608878D02*
X107316393Y-79561259D01*
X107316393Y-79561259D02*
X107221155Y-79513640D01*
X107221155Y-79513640D02*
X107173536Y-79466021D01*
X107173536Y-79466021D02*
X107125917Y-79370783D01*
X107125917Y-79370783D02*
X107125917Y-79275545D01*
X107125917Y-79275545D02*
X107173536Y-79180307D01*
X107173536Y-79180307D02*
X107221155Y-79132688D01*
X107221155Y-79132688D02*
X107316393Y-79085069D01*
X107316393Y-79085069D02*
X107554488Y-79085069D01*
X107554488Y-79085069D02*
X107697345Y-79132688D01*
X108030679Y-79085069D02*
X108268774Y-80085069D01*
X108268774Y-80085069D02*
X108459250Y-79370783D01*
X108459250Y-79370783D02*
X108649726Y-80085069D01*
X108649726Y-80085069D02*
X108887822Y-79085069D01*
X109173536Y-79085069D02*
X109792583Y-79085069D01*
X109792583Y-79085069D02*
X109459250Y-79466021D01*
X109459250Y-79466021D02*
X109602107Y-79466021D01*
X109602107Y-79466021D02*
X109697345Y-79513640D01*
X109697345Y-79513640D02*
X109744964Y-79561259D01*
X109744964Y-79561259D02*
X109792583Y-79656497D01*
X109792583Y-79656497D02*
X109792583Y-79894592D01*
X109792583Y-79894592D02*
X109744964Y-79989830D01*
X109744964Y-79989830D02*
X109697345Y-80037450D01*
X109697345Y-80037450D02*
X109602107Y-80085069D01*
X109602107Y-80085069D02*
X109316393Y-80085069D01*
X109316393Y-80085069D02*
X109221155Y-80037450D01*
X109221155Y-80037450D02*
X109173536Y-79989830D01*
X122962379Y-118654819D02*
X122629046Y-118178628D01*
X122390951Y-118654819D02*
X122390951Y-117654819D01*
X122390951Y-117654819D02*
X122771903Y-117654819D01*
X122771903Y-117654819D02*
X122867141Y-117702438D01*
X122867141Y-117702438D02*
X122914760Y-117750057D01*
X122914760Y-117750057D02*
X122962379Y-117845295D01*
X122962379Y-117845295D02*
X122962379Y-117988152D01*
X122962379Y-117988152D02*
X122914760Y-118083390D01*
X122914760Y-118083390D02*
X122867141Y-118131009D01*
X122867141Y-118131009D02*
X122771903Y-118178628D01*
X122771903Y-118178628D02*
X122390951Y-118178628D01*
X123533808Y-118654819D02*
X123438570Y-118607200D01*
X123438570Y-118607200D02*
X123390951Y-118559580D01*
X123390951Y-118559580D02*
X123343332Y-118464342D01*
X123343332Y-118464342D02*
X123343332Y-118178628D01*
X123343332Y-118178628D02*
X123390951Y-118083390D01*
X123390951Y-118083390D02*
X123438570Y-118035771D01*
X123438570Y-118035771D02*
X123533808Y-117988152D01*
X123533808Y-117988152D02*
X123676665Y-117988152D01*
X123676665Y-117988152D02*
X123771903Y-118035771D01*
X123771903Y-118035771D02*
X123819522Y-118083390D01*
X123819522Y-118083390D02*
X123867141Y-118178628D01*
X123867141Y-118178628D02*
X123867141Y-118464342D01*
X123867141Y-118464342D02*
X123819522Y-118559580D01*
X123819522Y-118559580D02*
X123771903Y-118607200D01*
X123771903Y-118607200D02*
X123676665Y-118654819D01*
X123676665Y-118654819D02*
X123533808Y-118654819D01*
X124152856Y-117988152D02*
X124533808Y-117988152D01*
X124295713Y-117654819D02*
X124295713Y-118511961D01*
X124295713Y-118511961D02*
X124343332Y-118607200D01*
X124343332Y-118607200D02*
X124438570Y-118654819D01*
X124438570Y-118654819D02*
X124533808Y-118654819D01*
X125295713Y-118654819D02*
X125295713Y-118131009D01*
X125295713Y-118131009D02*
X125248094Y-118035771D01*
X125248094Y-118035771D02*
X125152856Y-117988152D01*
X125152856Y-117988152D02*
X124962380Y-117988152D01*
X124962380Y-117988152D02*
X124867142Y-118035771D01*
X125295713Y-118607200D02*
X125200475Y-118654819D01*
X125200475Y-118654819D02*
X124962380Y-118654819D01*
X124962380Y-118654819D02*
X124867142Y-118607200D01*
X124867142Y-118607200D02*
X124819523Y-118511961D01*
X124819523Y-118511961D02*
X124819523Y-118416723D01*
X124819523Y-118416723D02*
X124867142Y-118321485D01*
X124867142Y-118321485D02*
X124962380Y-118273866D01*
X124962380Y-118273866D02*
X125200475Y-118273866D01*
X125200475Y-118273866D02*
X125295713Y-118226247D01*
X125771904Y-118654819D02*
X125771904Y-117988152D01*
X125771904Y-118178628D02*
X125819523Y-118083390D01*
X125819523Y-118083390D02*
X125867142Y-118035771D01*
X125867142Y-118035771D02*
X125962380Y-117988152D01*
X125962380Y-117988152D02*
X126057618Y-117988152D01*
X126295714Y-117988152D02*
X126533809Y-118654819D01*
X126771904Y-117988152D02*
X126533809Y-118654819D01*
X126533809Y-118654819D02*
X126438571Y-118892914D01*
X126438571Y-118892914D02*
X126390952Y-118940533D01*
X126390952Y-118940533D02*
X126295714Y-118988152D01*
X127152857Y-118131009D02*
X127486190Y-118131009D01*
X127629047Y-118654819D02*
X127152857Y-118654819D01*
X127152857Y-118654819D02*
X127152857Y-117654819D01*
X127152857Y-117654819D02*
X127629047Y-117654819D01*
X128057619Y-117988152D02*
X128057619Y-118654819D01*
X128057619Y-118083390D02*
X128105238Y-118035771D01*
X128105238Y-118035771D02*
X128200476Y-117988152D01*
X128200476Y-117988152D02*
X128343333Y-117988152D01*
X128343333Y-117988152D02*
X128438571Y-118035771D01*
X128438571Y-118035771D02*
X128486190Y-118131009D01*
X128486190Y-118131009D02*
X128486190Y-118654819D01*
X129390952Y-118607200D02*
X129295714Y-118654819D01*
X129295714Y-118654819D02*
X129105238Y-118654819D01*
X129105238Y-118654819D02*
X129010000Y-118607200D01*
X129010000Y-118607200D02*
X128962381Y-118559580D01*
X128962381Y-118559580D02*
X128914762Y-118464342D01*
X128914762Y-118464342D02*
X128914762Y-118178628D01*
X128914762Y-118178628D02*
X128962381Y-118083390D01*
X128962381Y-118083390D02*
X129010000Y-118035771D01*
X129010000Y-118035771D02*
X129105238Y-117988152D01*
X129105238Y-117988152D02*
X129295714Y-117988152D01*
X129295714Y-117988152D02*
X129390952Y-118035771D01*
X129962381Y-118654819D02*
X129867143Y-118607200D01*
X129867143Y-118607200D02*
X129819524Y-118559580D01*
X129819524Y-118559580D02*
X129771905Y-118464342D01*
X129771905Y-118464342D02*
X129771905Y-118178628D01*
X129771905Y-118178628D02*
X129819524Y-118083390D01*
X129819524Y-118083390D02*
X129867143Y-118035771D01*
X129867143Y-118035771D02*
X129962381Y-117988152D01*
X129962381Y-117988152D02*
X130105238Y-117988152D01*
X130105238Y-117988152D02*
X130200476Y-118035771D01*
X130200476Y-118035771D02*
X130248095Y-118083390D01*
X130248095Y-118083390D02*
X130295714Y-118178628D01*
X130295714Y-118178628D02*
X130295714Y-118464342D01*
X130295714Y-118464342D02*
X130248095Y-118559580D01*
X130248095Y-118559580D02*
X130200476Y-118607200D01*
X130200476Y-118607200D02*
X130105238Y-118654819D01*
X130105238Y-118654819D02*
X129962381Y-118654819D01*
X131152857Y-118654819D02*
X131152857Y-117654819D01*
X131152857Y-118607200D02*
X131057619Y-118654819D01*
X131057619Y-118654819D02*
X130867143Y-118654819D01*
X130867143Y-118654819D02*
X130771905Y-118607200D01*
X130771905Y-118607200D02*
X130724286Y-118559580D01*
X130724286Y-118559580D02*
X130676667Y-118464342D01*
X130676667Y-118464342D02*
X130676667Y-118178628D01*
X130676667Y-118178628D02*
X130724286Y-118083390D01*
X130724286Y-118083390D02*
X130771905Y-118035771D01*
X130771905Y-118035771D02*
X130867143Y-117988152D01*
X130867143Y-117988152D02*
X131057619Y-117988152D01*
X131057619Y-117988152D02*
X131152857Y-118035771D01*
X132010000Y-118607200D02*
X131914762Y-118654819D01*
X131914762Y-118654819D02*
X131724286Y-118654819D01*
X131724286Y-118654819D02*
X131629048Y-118607200D01*
X131629048Y-118607200D02*
X131581429Y-118511961D01*
X131581429Y-118511961D02*
X131581429Y-118131009D01*
X131581429Y-118131009D02*
X131629048Y-118035771D01*
X131629048Y-118035771D02*
X131724286Y-117988152D01*
X131724286Y-117988152D02*
X131914762Y-117988152D01*
X131914762Y-117988152D02*
X132010000Y-118035771D01*
X132010000Y-118035771D02*
X132057619Y-118131009D01*
X132057619Y-118131009D02*
X132057619Y-118226247D01*
X132057619Y-118226247D02*
X131581429Y-118321485D01*
X132486191Y-118654819D02*
X132486191Y-117988152D01*
X132486191Y-118178628D02*
X132533810Y-118083390D01*
X132533810Y-118083390D02*
X132581429Y-118035771D01*
X132581429Y-118035771D02*
X132676667Y-117988152D01*
X132676667Y-117988152D02*
X132771905Y-117988152D01*
X130246667Y-115747200D02*
X130389524Y-115794819D01*
X130389524Y-115794819D02*
X130627619Y-115794819D01*
X130627619Y-115794819D02*
X130722857Y-115747200D01*
X130722857Y-115747200D02*
X130770476Y-115699580D01*
X130770476Y-115699580D02*
X130818095Y-115604342D01*
X130818095Y-115604342D02*
X130818095Y-115509104D01*
X130818095Y-115509104D02*
X130770476Y-115413866D01*
X130770476Y-115413866D02*
X130722857Y-115366247D01*
X130722857Y-115366247D02*
X130627619Y-115318628D01*
X130627619Y-115318628D02*
X130437143Y-115271009D01*
X130437143Y-115271009D02*
X130341905Y-115223390D01*
X130341905Y-115223390D02*
X130294286Y-115175771D01*
X130294286Y-115175771D02*
X130246667Y-115080533D01*
X130246667Y-115080533D02*
X130246667Y-114985295D01*
X130246667Y-114985295D02*
X130294286Y-114890057D01*
X130294286Y-114890057D02*
X130341905Y-114842438D01*
X130341905Y-114842438D02*
X130437143Y-114794819D01*
X130437143Y-114794819D02*
X130675238Y-114794819D01*
X130675238Y-114794819D02*
X130818095Y-114842438D01*
X131151429Y-114794819D02*
X131389524Y-115794819D01*
X131389524Y-115794819D02*
X131580000Y-115080533D01*
X131580000Y-115080533D02*
X131770476Y-115794819D01*
X131770476Y-115794819D02*
X132008572Y-114794819D01*
X132294286Y-114794819D02*
X132960952Y-114794819D01*
X132960952Y-114794819D02*
X132532381Y-115794819D01*
X131550202Y-85422819D02*
X131740678Y-85422819D01*
X131740678Y-85422819D02*
X131835916Y-85470438D01*
X131835916Y-85470438D02*
X131931154Y-85565676D01*
X131931154Y-85565676D02*
X131978773Y-85756152D01*
X131978773Y-85756152D02*
X131978773Y-86089485D01*
X131978773Y-86089485D02*
X131931154Y-86279961D01*
X131931154Y-86279961D02*
X131835916Y-86375200D01*
X131835916Y-86375200D02*
X131740678Y-86422819D01*
X131740678Y-86422819D02*
X131550202Y-86422819D01*
X131550202Y-86422819D02*
X131454964Y-86375200D01*
X131454964Y-86375200D02*
X131359726Y-86279961D01*
X131359726Y-86279961D02*
X131312107Y-86089485D01*
X131312107Y-86089485D02*
X131312107Y-85756152D01*
X131312107Y-85756152D02*
X131359726Y-85565676D01*
X131359726Y-85565676D02*
X131454964Y-85470438D01*
X131454964Y-85470438D02*
X131550202Y-85422819D01*
X132883535Y-86422819D02*
X132407345Y-86422819D01*
X132407345Y-86422819D02*
X132407345Y-85422819D01*
X133216869Y-85899009D02*
X133550202Y-85899009D01*
X133693059Y-86422819D02*
X133216869Y-86422819D01*
X133216869Y-86422819D02*
X133216869Y-85422819D01*
X133216869Y-85422819D02*
X133693059Y-85422819D01*
X134121631Y-86422819D02*
X134121631Y-85422819D01*
X134121631Y-85422819D02*
X134359726Y-85422819D01*
X134359726Y-85422819D02*
X134502583Y-85470438D01*
X134502583Y-85470438D02*
X134597821Y-85565676D01*
X134597821Y-85565676D02*
X134645440Y-85660914D01*
X134645440Y-85660914D02*
X134693059Y-85851390D01*
X134693059Y-85851390D02*
X134693059Y-85994247D01*
X134693059Y-85994247D02*
X134645440Y-86184723D01*
X134645440Y-86184723D02*
X134597821Y-86279961D01*
X134597821Y-86279961D02*
X134502583Y-86375200D01*
X134502583Y-86375200D02*
X134359726Y-86422819D01*
X134359726Y-86422819D02*
X134121631Y-86422819D01*
X134883536Y-86518057D02*
X135645440Y-86518057D01*
X136407345Y-86422819D02*
X135835917Y-86422819D01*
X136121631Y-86422819D02*
X136121631Y-85422819D01*
X136121631Y-85422819D02*
X136026393Y-85565676D01*
X136026393Y-85565676D02*
X135931155Y-85660914D01*
X135931155Y-85660914D02*
X135835917Y-85708533D01*
X136788298Y-85518057D02*
X136835917Y-85470438D01*
X136835917Y-85470438D02*
X136931155Y-85422819D01*
X136931155Y-85422819D02*
X137169250Y-85422819D01*
X137169250Y-85422819D02*
X137264488Y-85470438D01*
X137264488Y-85470438D02*
X137312107Y-85518057D01*
X137312107Y-85518057D02*
X137359726Y-85613295D01*
X137359726Y-85613295D02*
X137359726Y-85708533D01*
X137359726Y-85708533D02*
X137312107Y-85851390D01*
X137312107Y-85851390D02*
X136740679Y-86422819D01*
X136740679Y-86422819D02*
X137359726Y-86422819D01*
X137931155Y-85851390D02*
X137835917Y-85803771D01*
X137835917Y-85803771D02*
X137788298Y-85756152D01*
X137788298Y-85756152D02*
X137740679Y-85660914D01*
X137740679Y-85660914D02*
X137740679Y-85613295D01*
X137740679Y-85613295D02*
X137788298Y-85518057D01*
X137788298Y-85518057D02*
X137835917Y-85470438D01*
X137835917Y-85470438D02*
X137931155Y-85422819D01*
X137931155Y-85422819D02*
X138121631Y-85422819D01*
X138121631Y-85422819D02*
X138216869Y-85470438D01*
X138216869Y-85470438D02*
X138264488Y-85518057D01*
X138264488Y-85518057D02*
X138312107Y-85613295D01*
X138312107Y-85613295D02*
X138312107Y-85660914D01*
X138312107Y-85660914D02*
X138264488Y-85756152D01*
X138264488Y-85756152D02*
X138216869Y-85803771D01*
X138216869Y-85803771D02*
X138121631Y-85851390D01*
X138121631Y-85851390D02*
X137931155Y-85851390D01*
X137931155Y-85851390D02*
X137835917Y-85899009D01*
X137835917Y-85899009D02*
X137788298Y-85946628D01*
X137788298Y-85946628D02*
X137740679Y-86041866D01*
X137740679Y-86041866D02*
X137740679Y-86232342D01*
X137740679Y-86232342D02*
X137788298Y-86327580D01*
X137788298Y-86327580D02*
X137835917Y-86375200D01*
X137835917Y-86375200D02*
X137931155Y-86422819D01*
X137931155Y-86422819D02*
X138121631Y-86422819D01*
X138121631Y-86422819D02*
X138216869Y-86375200D01*
X138216869Y-86375200D02*
X138264488Y-86327580D01*
X138264488Y-86327580D02*
X138312107Y-86232342D01*
X138312107Y-86232342D02*
X138312107Y-86041866D01*
X138312107Y-86041866D02*
X138264488Y-85946628D01*
X138264488Y-85946628D02*
X138216869Y-85899009D01*
X138216869Y-85899009D02*
X138121631Y-85851390D01*
X138645441Y-86422819D02*
X139169250Y-85756152D01*
X138645441Y-85756152D02*
X139169250Y-86422819D01*
X139454965Y-85422819D02*
X140074012Y-85422819D01*
X140074012Y-85422819D02*
X139740679Y-85803771D01*
X139740679Y-85803771D02*
X139883536Y-85803771D01*
X139883536Y-85803771D02*
X139978774Y-85851390D01*
X139978774Y-85851390D02*
X140026393Y-85899009D01*
X140026393Y-85899009D02*
X140074012Y-85994247D01*
X140074012Y-85994247D02*
X140074012Y-86232342D01*
X140074012Y-86232342D02*
X140026393Y-86327580D01*
X140026393Y-86327580D02*
X139978774Y-86375200D01*
X139978774Y-86375200D02*
X139883536Y-86422819D01*
X139883536Y-86422819D02*
X139597822Y-86422819D01*
X139597822Y-86422819D02*
X139502584Y-86375200D01*
X139502584Y-86375200D02*
X139454965Y-86327580D01*
X140454965Y-85518057D02*
X140502584Y-85470438D01*
X140502584Y-85470438D02*
X140597822Y-85422819D01*
X140597822Y-85422819D02*
X140835917Y-85422819D01*
X140835917Y-85422819D02*
X140931155Y-85470438D01*
X140931155Y-85470438D02*
X140978774Y-85518057D01*
X140978774Y-85518057D02*
X141026393Y-85613295D01*
X141026393Y-85613295D02*
X141026393Y-85708533D01*
X141026393Y-85708533D02*
X140978774Y-85851390D01*
X140978774Y-85851390D02*
X140407346Y-86422819D01*
X140407346Y-86422819D02*
X141026393Y-86422819D01*
X186374131Y-117216700D02*
X186516988Y-117264319D01*
X186516988Y-117264319D02*
X186755083Y-117264319D01*
X186755083Y-117264319D02*
X186850321Y-117216700D01*
X186850321Y-117216700D02*
X186897940Y-117169080D01*
X186897940Y-117169080D02*
X186945559Y-117073842D01*
X186945559Y-117073842D02*
X186945559Y-116978604D01*
X186945559Y-116978604D02*
X186897940Y-116883366D01*
X186897940Y-116883366D02*
X186850321Y-116835747D01*
X186850321Y-116835747D02*
X186755083Y-116788128D01*
X186755083Y-116788128D02*
X186564607Y-116740509D01*
X186564607Y-116740509D02*
X186469369Y-116692890D01*
X186469369Y-116692890D02*
X186421750Y-116645271D01*
X186421750Y-116645271D02*
X186374131Y-116550033D01*
X186374131Y-116550033D02*
X186374131Y-116454795D01*
X186374131Y-116454795D02*
X186421750Y-116359557D01*
X186421750Y-116359557D02*
X186469369Y-116311938D01*
X186469369Y-116311938D02*
X186564607Y-116264319D01*
X186564607Y-116264319D02*
X186802702Y-116264319D01*
X186802702Y-116264319D02*
X186945559Y-116311938D01*
X187278893Y-116264319D02*
X187516988Y-117264319D01*
X187516988Y-117264319D02*
X187707464Y-116550033D01*
X187707464Y-116550033D02*
X187897940Y-117264319D01*
X187897940Y-117264319D02*
X188136036Y-116264319D01*
X188278893Y-117359557D02*
X189040797Y-117359557D01*
X189278893Y-117264319D02*
X189278893Y-116264319D01*
X189278893Y-116264319D02*
X189659845Y-116264319D01*
X189659845Y-116264319D02*
X189755083Y-116311938D01*
X189755083Y-116311938D02*
X189802702Y-116359557D01*
X189802702Y-116359557D02*
X189850321Y-116454795D01*
X189850321Y-116454795D02*
X189850321Y-116597652D01*
X189850321Y-116597652D02*
X189802702Y-116692890D01*
X189802702Y-116692890D02*
X189755083Y-116740509D01*
X189755083Y-116740509D02*
X189659845Y-116788128D01*
X189659845Y-116788128D02*
X189278893Y-116788128D01*
X190707464Y-116597652D02*
X190707464Y-117264319D01*
X190278893Y-116597652D02*
X190278893Y-117121461D01*
X190278893Y-117121461D02*
X190326512Y-117216700D01*
X190326512Y-117216700D02*
X190421750Y-117264319D01*
X190421750Y-117264319D02*
X190564607Y-117264319D01*
X190564607Y-117264319D02*
X190659845Y-117216700D01*
X190659845Y-117216700D02*
X190707464Y-117169080D01*
X191136036Y-117216700D02*
X191231274Y-117264319D01*
X191231274Y-117264319D02*
X191421750Y-117264319D01*
X191421750Y-117264319D02*
X191516988Y-117216700D01*
X191516988Y-117216700D02*
X191564607Y-117121461D01*
X191564607Y-117121461D02*
X191564607Y-117073842D01*
X191564607Y-117073842D02*
X191516988Y-116978604D01*
X191516988Y-116978604D02*
X191421750Y-116930985D01*
X191421750Y-116930985D02*
X191278893Y-116930985D01*
X191278893Y-116930985D02*
X191183655Y-116883366D01*
X191183655Y-116883366D02*
X191136036Y-116788128D01*
X191136036Y-116788128D02*
X191136036Y-116740509D01*
X191136036Y-116740509D02*
X191183655Y-116645271D01*
X191183655Y-116645271D02*
X191278893Y-116597652D01*
X191278893Y-116597652D02*
X191421750Y-116597652D01*
X191421750Y-116597652D02*
X191516988Y-116645271D01*
X191993179Y-117264319D02*
X191993179Y-116264319D01*
X192421750Y-117264319D02*
X192421750Y-116740509D01*
X192421750Y-116740509D02*
X192374131Y-116645271D01*
X192374131Y-116645271D02*
X192278893Y-116597652D01*
X192278893Y-116597652D02*
X192136036Y-116597652D01*
X192136036Y-116597652D02*
X192040798Y-116645271D01*
X192040798Y-116645271D02*
X191993179Y-116692890D01*
X188088417Y-101468700D02*
X188231274Y-101516319D01*
X188231274Y-101516319D02*
X188469369Y-101516319D01*
X188469369Y-101516319D02*
X188564607Y-101468700D01*
X188564607Y-101468700D02*
X188612226Y-101421080D01*
X188612226Y-101421080D02*
X188659845Y-101325842D01*
X188659845Y-101325842D02*
X188659845Y-101230604D01*
X188659845Y-101230604D02*
X188612226Y-101135366D01*
X188612226Y-101135366D02*
X188564607Y-101087747D01*
X188564607Y-101087747D02*
X188469369Y-101040128D01*
X188469369Y-101040128D02*
X188278893Y-100992509D01*
X188278893Y-100992509D02*
X188183655Y-100944890D01*
X188183655Y-100944890D02*
X188136036Y-100897271D01*
X188136036Y-100897271D02*
X188088417Y-100802033D01*
X188088417Y-100802033D02*
X188088417Y-100706795D01*
X188088417Y-100706795D02*
X188136036Y-100611557D01*
X188136036Y-100611557D02*
X188183655Y-100563938D01*
X188183655Y-100563938D02*
X188278893Y-100516319D01*
X188278893Y-100516319D02*
X188516988Y-100516319D01*
X188516988Y-100516319D02*
X188659845Y-100563938D01*
X188993179Y-100516319D02*
X189231274Y-101516319D01*
X189231274Y-101516319D02*
X189421750Y-100802033D01*
X189421750Y-100802033D02*
X189612226Y-101516319D01*
X189612226Y-101516319D02*
X189850322Y-100516319D01*
X190183655Y-100611557D02*
X190231274Y-100563938D01*
X190231274Y-100563938D02*
X190326512Y-100516319D01*
X190326512Y-100516319D02*
X190564607Y-100516319D01*
X190564607Y-100516319D02*
X190659845Y-100563938D01*
X190659845Y-100563938D02*
X190707464Y-100611557D01*
X190707464Y-100611557D02*
X190755083Y-100706795D01*
X190755083Y-100706795D02*
X190755083Y-100802033D01*
X190755083Y-100802033D02*
X190707464Y-100944890D01*
X190707464Y-100944890D02*
X190136036Y-101516319D01*
X190136036Y-101516319D02*
X190755083Y-101516319D01*
X124389047Y-97488152D02*
X124389047Y-98154819D01*
X124150952Y-97107200D02*
X123912857Y-97821485D01*
X123912857Y-97821485D02*
X124531904Y-97821485D01*
X124912857Y-98059580D02*
X124960476Y-98107200D01*
X124960476Y-98107200D02*
X124912857Y-98154819D01*
X124912857Y-98154819D02*
X124865238Y-98107200D01*
X124865238Y-98107200D02*
X124912857Y-98059580D01*
X124912857Y-98059580D02*
X124912857Y-98154819D01*
X125293809Y-97154819D02*
X125960475Y-97154819D01*
X125960475Y-97154819D02*
X125531904Y-98154819D01*
X127103333Y-98154819D02*
X127103333Y-97154819D01*
X127198571Y-97773866D02*
X127484285Y-98154819D01*
X127484285Y-97488152D02*
X127103333Y-97869104D01*
X128055714Y-98154819D02*
X127960476Y-98107200D01*
X127960476Y-98107200D02*
X127912857Y-98059580D01*
X127912857Y-98059580D02*
X127865238Y-97964342D01*
X127865238Y-97964342D02*
X127865238Y-97678628D01*
X127865238Y-97678628D02*
X127912857Y-97583390D01*
X127912857Y-97583390D02*
X127960476Y-97535771D01*
X127960476Y-97535771D02*
X128055714Y-97488152D01*
X128055714Y-97488152D02*
X128198571Y-97488152D01*
X128198571Y-97488152D02*
X128293809Y-97535771D01*
X128293809Y-97535771D02*
X128341428Y-97583390D01*
X128341428Y-97583390D02*
X128389047Y-97678628D01*
X128389047Y-97678628D02*
X128389047Y-97964342D01*
X128389047Y-97964342D02*
X128341428Y-98059580D01*
X128341428Y-98059580D02*
X128293809Y-98107200D01*
X128293809Y-98107200D02*
X128198571Y-98154819D01*
X128198571Y-98154819D02*
X128055714Y-98154819D01*
X128817619Y-98154819D02*
X128817619Y-97154819D01*
X129246190Y-98154819D02*
X129246190Y-97631009D01*
X129246190Y-97631009D02*
X129198571Y-97535771D01*
X129198571Y-97535771D02*
X129103333Y-97488152D01*
X129103333Y-97488152D02*
X128960476Y-97488152D01*
X128960476Y-97488152D02*
X128865238Y-97535771D01*
X128865238Y-97535771D02*
X128817619Y-97583390D01*
X129722381Y-98154819D02*
X129722381Y-97488152D01*
X129722381Y-97583390D02*
X129770000Y-97535771D01*
X129770000Y-97535771D02*
X129865238Y-97488152D01*
X129865238Y-97488152D02*
X130008095Y-97488152D01*
X130008095Y-97488152D02*
X130103333Y-97535771D01*
X130103333Y-97535771D02*
X130150952Y-97631009D01*
X130150952Y-97631009D02*
X130150952Y-98154819D01*
X130150952Y-97631009D02*
X130198571Y-97535771D01*
X130198571Y-97535771D02*
X130293809Y-97488152D01*
X130293809Y-97488152D02*
X130436666Y-97488152D01*
X130436666Y-97488152D02*
X130531905Y-97535771D01*
X130531905Y-97535771D02*
X130579524Y-97631009D01*
X130579524Y-97631009D02*
X130579524Y-98154819D01*
X127342583Y-102246569D02*
X127009250Y-101770378D01*
X126771155Y-102246569D02*
X126771155Y-101246569D01*
X126771155Y-101246569D02*
X127152107Y-101246569D01*
X127152107Y-101246569D02*
X127247345Y-101294188D01*
X127247345Y-101294188D02*
X127294964Y-101341807D01*
X127294964Y-101341807D02*
X127342583Y-101437045D01*
X127342583Y-101437045D02*
X127342583Y-101579902D01*
X127342583Y-101579902D02*
X127294964Y-101675140D01*
X127294964Y-101675140D02*
X127247345Y-101722759D01*
X127247345Y-101722759D02*
X127152107Y-101770378D01*
X127152107Y-101770378D02*
X126771155Y-101770378D01*
X127723536Y-101341807D02*
X127771155Y-101294188D01*
X127771155Y-101294188D02*
X127866393Y-101246569D01*
X127866393Y-101246569D02*
X128104488Y-101246569D01*
X128104488Y-101246569D02*
X128199726Y-101294188D01*
X128199726Y-101294188D02*
X128247345Y-101341807D01*
X128247345Y-101341807D02*
X128294964Y-101437045D01*
X128294964Y-101437045D02*
X128294964Y-101532283D01*
X128294964Y-101532283D02*
X128247345Y-101675140D01*
X128247345Y-101675140D02*
X127675917Y-102246569D01*
X127675917Y-102246569D02*
X128294964Y-102246569D01*
X105411631Y-117216700D02*
X105554488Y-117264319D01*
X105554488Y-117264319D02*
X105792583Y-117264319D01*
X105792583Y-117264319D02*
X105887821Y-117216700D01*
X105887821Y-117216700D02*
X105935440Y-117169080D01*
X105935440Y-117169080D02*
X105983059Y-117073842D01*
X105983059Y-117073842D02*
X105983059Y-116978604D01*
X105983059Y-116978604D02*
X105935440Y-116883366D01*
X105935440Y-116883366D02*
X105887821Y-116835747D01*
X105887821Y-116835747D02*
X105792583Y-116788128D01*
X105792583Y-116788128D02*
X105602107Y-116740509D01*
X105602107Y-116740509D02*
X105506869Y-116692890D01*
X105506869Y-116692890D02*
X105459250Y-116645271D01*
X105459250Y-116645271D02*
X105411631Y-116550033D01*
X105411631Y-116550033D02*
X105411631Y-116454795D01*
X105411631Y-116454795D02*
X105459250Y-116359557D01*
X105459250Y-116359557D02*
X105506869Y-116311938D01*
X105506869Y-116311938D02*
X105602107Y-116264319D01*
X105602107Y-116264319D02*
X105840202Y-116264319D01*
X105840202Y-116264319D02*
X105983059Y-116311938D01*
X106316393Y-116264319D02*
X106554488Y-117264319D01*
X106554488Y-117264319D02*
X106744964Y-116550033D01*
X106744964Y-116550033D02*
X106935440Y-117264319D01*
X106935440Y-117264319D02*
X107173536Y-116264319D01*
X107316393Y-117359557D02*
X108078297Y-117359557D01*
X108316393Y-117264319D02*
X108316393Y-116264319D01*
X108316393Y-116264319D02*
X108697345Y-116264319D01*
X108697345Y-116264319D02*
X108792583Y-116311938D01*
X108792583Y-116311938D02*
X108840202Y-116359557D01*
X108840202Y-116359557D02*
X108887821Y-116454795D01*
X108887821Y-116454795D02*
X108887821Y-116597652D01*
X108887821Y-116597652D02*
X108840202Y-116692890D01*
X108840202Y-116692890D02*
X108792583Y-116740509D01*
X108792583Y-116740509D02*
X108697345Y-116788128D01*
X108697345Y-116788128D02*
X108316393Y-116788128D01*
X109744964Y-116597652D02*
X109744964Y-117264319D01*
X109316393Y-116597652D02*
X109316393Y-117121461D01*
X109316393Y-117121461D02*
X109364012Y-117216700D01*
X109364012Y-117216700D02*
X109459250Y-117264319D01*
X109459250Y-117264319D02*
X109602107Y-117264319D01*
X109602107Y-117264319D02*
X109697345Y-117216700D01*
X109697345Y-117216700D02*
X109744964Y-117169080D01*
X110173536Y-117216700D02*
X110268774Y-117264319D01*
X110268774Y-117264319D02*
X110459250Y-117264319D01*
X110459250Y-117264319D02*
X110554488Y-117216700D01*
X110554488Y-117216700D02*
X110602107Y-117121461D01*
X110602107Y-117121461D02*
X110602107Y-117073842D01*
X110602107Y-117073842D02*
X110554488Y-116978604D01*
X110554488Y-116978604D02*
X110459250Y-116930985D01*
X110459250Y-116930985D02*
X110316393Y-116930985D01*
X110316393Y-116930985D02*
X110221155Y-116883366D01*
X110221155Y-116883366D02*
X110173536Y-116788128D01*
X110173536Y-116788128D02*
X110173536Y-116740509D01*
X110173536Y-116740509D02*
X110221155Y-116645271D01*
X110221155Y-116645271D02*
X110316393Y-116597652D01*
X110316393Y-116597652D02*
X110459250Y-116597652D01*
X110459250Y-116597652D02*
X110554488Y-116645271D01*
X111030679Y-117264319D02*
X111030679Y-116264319D01*
X111459250Y-117264319D02*
X111459250Y-116740509D01*
X111459250Y-116740509D02*
X111411631Y-116645271D01*
X111411631Y-116645271D02*
X111316393Y-116597652D01*
X111316393Y-116597652D02*
X111173536Y-116597652D01*
X111173536Y-116597652D02*
X111078298Y-116645271D01*
X111078298Y-116645271D02*
X111030679Y-116692890D01*
X107125917Y-101468700D02*
X107268774Y-101516319D01*
X107268774Y-101516319D02*
X107506869Y-101516319D01*
X107506869Y-101516319D02*
X107602107Y-101468700D01*
X107602107Y-101468700D02*
X107649726Y-101421080D01*
X107649726Y-101421080D02*
X107697345Y-101325842D01*
X107697345Y-101325842D02*
X107697345Y-101230604D01*
X107697345Y-101230604D02*
X107649726Y-101135366D01*
X107649726Y-101135366D02*
X107602107Y-101087747D01*
X107602107Y-101087747D02*
X107506869Y-101040128D01*
X107506869Y-101040128D02*
X107316393Y-100992509D01*
X107316393Y-100992509D02*
X107221155Y-100944890D01*
X107221155Y-100944890D02*
X107173536Y-100897271D01*
X107173536Y-100897271D02*
X107125917Y-100802033D01*
X107125917Y-100802033D02*
X107125917Y-100706795D01*
X107125917Y-100706795D02*
X107173536Y-100611557D01*
X107173536Y-100611557D02*
X107221155Y-100563938D01*
X107221155Y-100563938D02*
X107316393Y-100516319D01*
X107316393Y-100516319D02*
X107554488Y-100516319D01*
X107554488Y-100516319D02*
X107697345Y-100563938D01*
X108030679Y-100516319D02*
X108268774Y-101516319D01*
X108268774Y-101516319D02*
X108459250Y-100802033D01*
X108459250Y-100802033D02*
X108649726Y-101516319D01*
X108649726Y-101516319D02*
X108887822Y-100516319D01*
X109792583Y-101516319D02*
X109221155Y-101516319D01*
X109506869Y-101516319D02*
X109506869Y-100516319D01*
X109506869Y-100516319D02*
X109411631Y-100659176D01*
X109411631Y-100659176D02*
X109316393Y-100754414D01*
X109316393Y-100754414D02*
X109221155Y-100802033D01*
X165922379Y-118844819D02*
X165589046Y-118368628D01*
X165350951Y-118844819D02*
X165350951Y-117844819D01*
X165350951Y-117844819D02*
X165731903Y-117844819D01*
X165731903Y-117844819D02*
X165827141Y-117892438D01*
X165827141Y-117892438D02*
X165874760Y-117940057D01*
X165874760Y-117940057D02*
X165922379Y-118035295D01*
X165922379Y-118035295D02*
X165922379Y-118178152D01*
X165922379Y-118178152D02*
X165874760Y-118273390D01*
X165874760Y-118273390D02*
X165827141Y-118321009D01*
X165827141Y-118321009D02*
X165731903Y-118368628D01*
X165731903Y-118368628D02*
X165350951Y-118368628D01*
X166493808Y-118844819D02*
X166398570Y-118797200D01*
X166398570Y-118797200D02*
X166350951Y-118749580D01*
X166350951Y-118749580D02*
X166303332Y-118654342D01*
X166303332Y-118654342D02*
X166303332Y-118368628D01*
X166303332Y-118368628D02*
X166350951Y-118273390D01*
X166350951Y-118273390D02*
X166398570Y-118225771D01*
X166398570Y-118225771D02*
X166493808Y-118178152D01*
X166493808Y-118178152D02*
X166636665Y-118178152D01*
X166636665Y-118178152D02*
X166731903Y-118225771D01*
X166731903Y-118225771D02*
X166779522Y-118273390D01*
X166779522Y-118273390D02*
X166827141Y-118368628D01*
X166827141Y-118368628D02*
X166827141Y-118654342D01*
X166827141Y-118654342D02*
X166779522Y-118749580D01*
X166779522Y-118749580D02*
X166731903Y-118797200D01*
X166731903Y-118797200D02*
X166636665Y-118844819D01*
X166636665Y-118844819D02*
X166493808Y-118844819D01*
X167112856Y-118178152D02*
X167493808Y-118178152D01*
X167255713Y-117844819D02*
X167255713Y-118701961D01*
X167255713Y-118701961D02*
X167303332Y-118797200D01*
X167303332Y-118797200D02*
X167398570Y-118844819D01*
X167398570Y-118844819D02*
X167493808Y-118844819D01*
X168255713Y-118844819D02*
X168255713Y-118321009D01*
X168255713Y-118321009D02*
X168208094Y-118225771D01*
X168208094Y-118225771D02*
X168112856Y-118178152D01*
X168112856Y-118178152D02*
X167922380Y-118178152D01*
X167922380Y-118178152D02*
X167827142Y-118225771D01*
X168255713Y-118797200D02*
X168160475Y-118844819D01*
X168160475Y-118844819D02*
X167922380Y-118844819D01*
X167922380Y-118844819D02*
X167827142Y-118797200D01*
X167827142Y-118797200D02*
X167779523Y-118701961D01*
X167779523Y-118701961D02*
X167779523Y-118606723D01*
X167779523Y-118606723D02*
X167827142Y-118511485D01*
X167827142Y-118511485D02*
X167922380Y-118463866D01*
X167922380Y-118463866D02*
X168160475Y-118463866D01*
X168160475Y-118463866D02*
X168255713Y-118416247D01*
X168731904Y-118844819D02*
X168731904Y-118178152D01*
X168731904Y-118368628D02*
X168779523Y-118273390D01*
X168779523Y-118273390D02*
X168827142Y-118225771D01*
X168827142Y-118225771D02*
X168922380Y-118178152D01*
X168922380Y-118178152D02*
X169017618Y-118178152D01*
X169255714Y-118178152D02*
X169493809Y-118844819D01*
X169731904Y-118178152D02*
X169493809Y-118844819D01*
X169493809Y-118844819D02*
X169398571Y-119082914D01*
X169398571Y-119082914D02*
X169350952Y-119130533D01*
X169350952Y-119130533D02*
X169255714Y-119178152D01*
X170112857Y-118321009D02*
X170446190Y-118321009D01*
X170589047Y-118844819D02*
X170112857Y-118844819D01*
X170112857Y-118844819D02*
X170112857Y-117844819D01*
X170112857Y-117844819D02*
X170589047Y-117844819D01*
X171017619Y-118178152D02*
X171017619Y-118844819D01*
X171017619Y-118273390D02*
X171065238Y-118225771D01*
X171065238Y-118225771D02*
X171160476Y-118178152D01*
X171160476Y-118178152D02*
X171303333Y-118178152D01*
X171303333Y-118178152D02*
X171398571Y-118225771D01*
X171398571Y-118225771D02*
X171446190Y-118321009D01*
X171446190Y-118321009D02*
X171446190Y-118844819D01*
X172350952Y-118797200D02*
X172255714Y-118844819D01*
X172255714Y-118844819D02*
X172065238Y-118844819D01*
X172065238Y-118844819D02*
X171970000Y-118797200D01*
X171970000Y-118797200D02*
X171922381Y-118749580D01*
X171922381Y-118749580D02*
X171874762Y-118654342D01*
X171874762Y-118654342D02*
X171874762Y-118368628D01*
X171874762Y-118368628D02*
X171922381Y-118273390D01*
X171922381Y-118273390D02*
X171970000Y-118225771D01*
X171970000Y-118225771D02*
X172065238Y-118178152D01*
X172065238Y-118178152D02*
X172255714Y-118178152D01*
X172255714Y-118178152D02*
X172350952Y-118225771D01*
X172922381Y-118844819D02*
X172827143Y-118797200D01*
X172827143Y-118797200D02*
X172779524Y-118749580D01*
X172779524Y-118749580D02*
X172731905Y-118654342D01*
X172731905Y-118654342D02*
X172731905Y-118368628D01*
X172731905Y-118368628D02*
X172779524Y-118273390D01*
X172779524Y-118273390D02*
X172827143Y-118225771D01*
X172827143Y-118225771D02*
X172922381Y-118178152D01*
X172922381Y-118178152D02*
X173065238Y-118178152D01*
X173065238Y-118178152D02*
X173160476Y-118225771D01*
X173160476Y-118225771D02*
X173208095Y-118273390D01*
X173208095Y-118273390D02*
X173255714Y-118368628D01*
X173255714Y-118368628D02*
X173255714Y-118654342D01*
X173255714Y-118654342D02*
X173208095Y-118749580D01*
X173208095Y-118749580D02*
X173160476Y-118797200D01*
X173160476Y-118797200D02*
X173065238Y-118844819D01*
X173065238Y-118844819D02*
X172922381Y-118844819D01*
X174112857Y-118844819D02*
X174112857Y-117844819D01*
X174112857Y-118797200D02*
X174017619Y-118844819D01*
X174017619Y-118844819D02*
X173827143Y-118844819D01*
X173827143Y-118844819D02*
X173731905Y-118797200D01*
X173731905Y-118797200D02*
X173684286Y-118749580D01*
X173684286Y-118749580D02*
X173636667Y-118654342D01*
X173636667Y-118654342D02*
X173636667Y-118368628D01*
X173636667Y-118368628D02*
X173684286Y-118273390D01*
X173684286Y-118273390D02*
X173731905Y-118225771D01*
X173731905Y-118225771D02*
X173827143Y-118178152D01*
X173827143Y-118178152D02*
X174017619Y-118178152D01*
X174017619Y-118178152D02*
X174112857Y-118225771D01*
X174970000Y-118797200D02*
X174874762Y-118844819D01*
X174874762Y-118844819D02*
X174684286Y-118844819D01*
X174684286Y-118844819D02*
X174589048Y-118797200D01*
X174589048Y-118797200D02*
X174541429Y-118701961D01*
X174541429Y-118701961D02*
X174541429Y-118321009D01*
X174541429Y-118321009D02*
X174589048Y-118225771D01*
X174589048Y-118225771D02*
X174684286Y-118178152D01*
X174684286Y-118178152D02*
X174874762Y-118178152D01*
X174874762Y-118178152D02*
X174970000Y-118225771D01*
X174970000Y-118225771D02*
X175017619Y-118321009D01*
X175017619Y-118321009D02*
X175017619Y-118416247D01*
X175017619Y-118416247D02*
X174541429Y-118511485D01*
X175446191Y-118844819D02*
X175446191Y-118178152D01*
X175446191Y-118368628D02*
X175493810Y-118273390D01*
X175493810Y-118273390D02*
X175541429Y-118225771D01*
X175541429Y-118225771D02*
X175636667Y-118178152D01*
X175636667Y-118178152D02*
X175731905Y-118178152D01*
X173226667Y-115647200D02*
X173369524Y-115694819D01*
X173369524Y-115694819D02*
X173607619Y-115694819D01*
X173607619Y-115694819D02*
X173702857Y-115647200D01*
X173702857Y-115647200D02*
X173750476Y-115599580D01*
X173750476Y-115599580D02*
X173798095Y-115504342D01*
X173798095Y-115504342D02*
X173798095Y-115409104D01*
X173798095Y-115409104D02*
X173750476Y-115313866D01*
X173750476Y-115313866D02*
X173702857Y-115266247D01*
X173702857Y-115266247D02*
X173607619Y-115218628D01*
X173607619Y-115218628D02*
X173417143Y-115171009D01*
X173417143Y-115171009D02*
X173321905Y-115123390D01*
X173321905Y-115123390D02*
X173274286Y-115075771D01*
X173274286Y-115075771D02*
X173226667Y-114980533D01*
X173226667Y-114980533D02*
X173226667Y-114885295D01*
X173226667Y-114885295D02*
X173274286Y-114790057D01*
X173274286Y-114790057D02*
X173321905Y-114742438D01*
X173321905Y-114742438D02*
X173417143Y-114694819D01*
X173417143Y-114694819D02*
X173655238Y-114694819D01*
X173655238Y-114694819D02*
X173798095Y-114742438D01*
X174131429Y-114694819D02*
X174369524Y-115694819D01*
X174369524Y-115694819D02*
X174560000Y-114980533D01*
X174560000Y-114980533D02*
X174750476Y-115694819D01*
X174750476Y-115694819D02*
X174988572Y-114694819D01*
X175845714Y-114694819D02*
X175369524Y-114694819D01*
X175369524Y-114694819D02*
X175321905Y-115171009D01*
X175321905Y-115171009D02*
X175369524Y-115123390D01*
X175369524Y-115123390D02*
X175464762Y-115075771D01*
X175464762Y-115075771D02*
X175702857Y-115075771D01*
X175702857Y-115075771D02*
X175798095Y-115123390D01*
X175798095Y-115123390D02*
X175845714Y-115171009D01*
X175845714Y-115171009D02*
X175893333Y-115266247D01*
X175893333Y-115266247D02*
X175893333Y-115504342D01*
X175893333Y-115504342D02*
X175845714Y-115599580D01*
X175845714Y-115599580D02*
X175798095Y-115647200D01*
X175798095Y-115647200D02*
X175702857Y-115694819D01*
X175702857Y-115694819D02*
X175464762Y-115694819D01*
X175464762Y-115694819D02*
X175369524Y-115647200D01*
X175369524Y-115647200D02*
X175321905Y-115599580D01*
X167109047Y-97488152D02*
X167109047Y-98154819D01*
X166870952Y-97107200D02*
X166632857Y-97821485D01*
X166632857Y-97821485D02*
X167251904Y-97821485D01*
X167632857Y-98059580D02*
X167680476Y-98107200D01*
X167680476Y-98107200D02*
X167632857Y-98154819D01*
X167632857Y-98154819D02*
X167585238Y-98107200D01*
X167585238Y-98107200D02*
X167632857Y-98059580D01*
X167632857Y-98059580D02*
X167632857Y-98154819D01*
X168013809Y-97154819D02*
X168680475Y-97154819D01*
X168680475Y-97154819D02*
X168251904Y-98154819D01*
X169823333Y-98154819D02*
X169823333Y-97154819D01*
X169918571Y-97773866D02*
X170204285Y-98154819D01*
X170204285Y-97488152D02*
X169823333Y-97869104D01*
X170775714Y-98154819D02*
X170680476Y-98107200D01*
X170680476Y-98107200D02*
X170632857Y-98059580D01*
X170632857Y-98059580D02*
X170585238Y-97964342D01*
X170585238Y-97964342D02*
X170585238Y-97678628D01*
X170585238Y-97678628D02*
X170632857Y-97583390D01*
X170632857Y-97583390D02*
X170680476Y-97535771D01*
X170680476Y-97535771D02*
X170775714Y-97488152D01*
X170775714Y-97488152D02*
X170918571Y-97488152D01*
X170918571Y-97488152D02*
X171013809Y-97535771D01*
X171013809Y-97535771D02*
X171061428Y-97583390D01*
X171061428Y-97583390D02*
X171109047Y-97678628D01*
X171109047Y-97678628D02*
X171109047Y-97964342D01*
X171109047Y-97964342D02*
X171061428Y-98059580D01*
X171061428Y-98059580D02*
X171013809Y-98107200D01*
X171013809Y-98107200D02*
X170918571Y-98154819D01*
X170918571Y-98154819D02*
X170775714Y-98154819D01*
X171537619Y-98154819D02*
X171537619Y-97154819D01*
X171966190Y-98154819D02*
X171966190Y-97631009D01*
X171966190Y-97631009D02*
X171918571Y-97535771D01*
X171918571Y-97535771D02*
X171823333Y-97488152D01*
X171823333Y-97488152D02*
X171680476Y-97488152D01*
X171680476Y-97488152D02*
X171585238Y-97535771D01*
X171585238Y-97535771D02*
X171537619Y-97583390D01*
X172442381Y-98154819D02*
X172442381Y-97488152D01*
X172442381Y-97583390D02*
X172490000Y-97535771D01*
X172490000Y-97535771D02*
X172585238Y-97488152D01*
X172585238Y-97488152D02*
X172728095Y-97488152D01*
X172728095Y-97488152D02*
X172823333Y-97535771D01*
X172823333Y-97535771D02*
X172870952Y-97631009D01*
X172870952Y-97631009D02*
X172870952Y-98154819D01*
X172870952Y-97631009D02*
X172918571Y-97535771D01*
X172918571Y-97535771D02*
X173013809Y-97488152D01*
X173013809Y-97488152D02*
X173156666Y-97488152D01*
X173156666Y-97488152D02*
X173251905Y-97535771D01*
X173251905Y-97535771D02*
X173299524Y-97631009D01*
X173299524Y-97631009D02*
X173299524Y-98154819D01*
X170205083Y-102246569D02*
X169871750Y-101770378D01*
X169633655Y-102246569D02*
X169633655Y-101246569D01*
X169633655Y-101246569D02*
X170014607Y-101246569D01*
X170014607Y-101246569D02*
X170109845Y-101294188D01*
X170109845Y-101294188D02*
X170157464Y-101341807D01*
X170157464Y-101341807D02*
X170205083Y-101437045D01*
X170205083Y-101437045D02*
X170205083Y-101579902D01*
X170205083Y-101579902D02*
X170157464Y-101675140D01*
X170157464Y-101675140D02*
X170109845Y-101722759D01*
X170109845Y-101722759D02*
X170014607Y-101770378D01*
X170014607Y-101770378D02*
X169633655Y-101770378D01*
X171157464Y-102246569D02*
X170586036Y-102246569D01*
X170871750Y-102246569D02*
X170871750Y-101246569D01*
X170871750Y-101246569D02*
X170776512Y-101389426D01*
X170776512Y-101389426D02*
X170681274Y-101484664D01*
X170681274Y-101484664D02*
X170586036Y-101532283D01*
X186374131Y-96069200D02*
X186516988Y-96116819D01*
X186516988Y-96116819D02*
X186755083Y-96116819D01*
X186755083Y-96116819D02*
X186850321Y-96069200D01*
X186850321Y-96069200D02*
X186897940Y-96021580D01*
X186897940Y-96021580D02*
X186945559Y-95926342D01*
X186945559Y-95926342D02*
X186945559Y-95831104D01*
X186945559Y-95831104D02*
X186897940Y-95735866D01*
X186897940Y-95735866D02*
X186850321Y-95688247D01*
X186850321Y-95688247D02*
X186755083Y-95640628D01*
X186755083Y-95640628D02*
X186564607Y-95593009D01*
X186564607Y-95593009D02*
X186469369Y-95545390D01*
X186469369Y-95545390D02*
X186421750Y-95497771D01*
X186421750Y-95497771D02*
X186374131Y-95402533D01*
X186374131Y-95402533D02*
X186374131Y-95307295D01*
X186374131Y-95307295D02*
X186421750Y-95212057D01*
X186421750Y-95212057D02*
X186469369Y-95164438D01*
X186469369Y-95164438D02*
X186564607Y-95116819D01*
X186564607Y-95116819D02*
X186802702Y-95116819D01*
X186802702Y-95116819D02*
X186945559Y-95164438D01*
X187278893Y-95116819D02*
X187516988Y-96116819D01*
X187516988Y-96116819D02*
X187707464Y-95402533D01*
X187707464Y-95402533D02*
X187897940Y-96116819D01*
X187897940Y-96116819D02*
X188136036Y-95116819D01*
X188278893Y-96212057D02*
X189040797Y-96212057D01*
X189278893Y-96116819D02*
X189278893Y-95116819D01*
X189278893Y-95116819D02*
X189659845Y-95116819D01*
X189659845Y-95116819D02*
X189755083Y-95164438D01*
X189755083Y-95164438D02*
X189802702Y-95212057D01*
X189802702Y-95212057D02*
X189850321Y-95307295D01*
X189850321Y-95307295D02*
X189850321Y-95450152D01*
X189850321Y-95450152D02*
X189802702Y-95545390D01*
X189802702Y-95545390D02*
X189755083Y-95593009D01*
X189755083Y-95593009D02*
X189659845Y-95640628D01*
X189659845Y-95640628D02*
X189278893Y-95640628D01*
X190707464Y-95450152D02*
X190707464Y-96116819D01*
X190278893Y-95450152D02*
X190278893Y-95973961D01*
X190278893Y-95973961D02*
X190326512Y-96069200D01*
X190326512Y-96069200D02*
X190421750Y-96116819D01*
X190421750Y-96116819D02*
X190564607Y-96116819D01*
X190564607Y-96116819D02*
X190659845Y-96069200D01*
X190659845Y-96069200D02*
X190707464Y-96021580D01*
X191136036Y-96069200D02*
X191231274Y-96116819D01*
X191231274Y-96116819D02*
X191421750Y-96116819D01*
X191421750Y-96116819D02*
X191516988Y-96069200D01*
X191516988Y-96069200D02*
X191564607Y-95973961D01*
X191564607Y-95973961D02*
X191564607Y-95926342D01*
X191564607Y-95926342D02*
X191516988Y-95831104D01*
X191516988Y-95831104D02*
X191421750Y-95783485D01*
X191421750Y-95783485D02*
X191278893Y-95783485D01*
X191278893Y-95783485D02*
X191183655Y-95735866D01*
X191183655Y-95735866D02*
X191136036Y-95640628D01*
X191136036Y-95640628D02*
X191136036Y-95593009D01*
X191136036Y-95593009D02*
X191183655Y-95497771D01*
X191183655Y-95497771D02*
X191278893Y-95450152D01*
X191278893Y-95450152D02*
X191421750Y-95450152D01*
X191421750Y-95450152D02*
X191516988Y-95497771D01*
X191993179Y-96116819D02*
X191993179Y-95116819D01*
X192421750Y-96116819D02*
X192421750Y-95593009D01*
X192421750Y-95593009D02*
X192374131Y-95497771D01*
X192374131Y-95497771D02*
X192278893Y-95450152D01*
X192278893Y-95450152D02*
X192136036Y-95450152D01*
X192136036Y-95450152D02*
X192040798Y-95497771D01*
X192040798Y-95497771D02*
X191993179Y-95545390D01*
X188088417Y-80321200D02*
X188231274Y-80368819D01*
X188231274Y-80368819D02*
X188469369Y-80368819D01*
X188469369Y-80368819D02*
X188564607Y-80321200D01*
X188564607Y-80321200D02*
X188612226Y-80273580D01*
X188612226Y-80273580D02*
X188659845Y-80178342D01*
X188659845Y-80178342D02*
X188659845Y-80083104D01*
X188659845Y-80083104D02*
X188612226Y-79987866D01*
X188612226Y-79987866D02*
X188564607Y-79940247D01*
X188564607Y-79940247D02*
X188469369Y-79892628D01*
X188469369Y-79892628D02*
X188278893Y-79845009D01*
X188278893Y-79845009D02*
X188183655Y-79797390D01*
X188183655Y-79797390D02*
X188136036Y-79749771D01*
X188136036Y-79749771D02*
X188088417Y-79654533D01*
X188088417Y-79654533D02*
X188088417Y-79559295D01*
X188088417Y-79559295D02*
X188136036Y-79464057D01*
X188136036Y-79464057D02*
X188183655Y-79416438D01*
X188183655Y-79416438D02*
X188278893Y-79368819D01*
X188278893Y-79368819D02*
X188516988Y-79368819D01*
X188516988Y-79368819D02*
X188659845Y-79416438D01*
X188993179Y-79368819D02*
X189231274Y-80368819D01*
X189231274Y-80368819D02*
X189421750Y-79654533D01*
X189421750Y-79654533D02*
X189612226Y-80368819D01*
X189612226Y-80368819D02*
X189850322Y-79368819D01*
X190659845Y-79702152D02*
X190659845Y-80368819D01*
X190421750Y-79321200D02*
X190183655Y-80035485D01*
X190183655Y-80035485D02*
X190802702Y-80035485D01*
D11*
X153521570Y-109282020D02*
X153098237Y-108647020D01*
X153098237Y-109282020D02*
X153521570Y-108647020D01*
X152856332Y-108647020D02*
X152856332Y-109282020D01*
X152584189Y-108828449D02*
X152281808Y-108828449D01*
X152644665Y-108647020D02*
X152432999Y-109282020D01*
X152432999Y-109282020D02*
X152221332Y-108647020D01*
X151888713Y-109282020D02*
X151767760Y-109282020D01*
X151767760Y-109282020D02*
X151707284Y-109251782D01*
X151707284Y-109251782D02*
X151646808Y-109191306D01*
X151646808Y-109191306D02*
X151616570Y-109070354D01*
X151616570Y-109070354D02*
X151616570Y-108858687D01*
X151616570Y-108858687D02*
X151646808Y-108737735D01*
X151646808Y-108737735D02*
X151707284Y-108677259D01*
X151707284Y-108677259D02*
X151767760Y-108647020D01*
X151767760Y-108647020D02*
X151888713Y-108647020D01*
X151888713Y-108647020D02*
X151949189Y-108677259D01*
X151949189Y-108677259D02*
X152009665Y-108737735D01*
X152009665Y-108737735D02*
X152039903Y-108858687D01*
X152039903Y-108858687D02*
X152039903Y-109070354D01*
X152039903Y-109070354D02*
X152009665Y-109191306D01*
X152009665Y-109191306D02*
X151949189Y-109251782D01*
X151949189Y-109251782D02*
X151888713Y-109282020D01*
X151344427Y-108888925D02*
X150860618Y-108888925D01*
X150195380Y-108647020D02*
X150407047Y-108949401D01*
X150558237Y-108647020D02*
X150558237Y-109282020D01*
X150558237Y-109282020D02*
X150316332Y-109282020D01*
X150316332Y-109282020D02*
X150255856Y-109251782D01*
X150255856Y-109251782D02*
X150225618Y-109221544D01*
X150225618Y-109221544D02*
X150195380Y-109161068D01*
X150195380Y-109161068D02*
X150195380Y-109070354D01*
X150195380Y-109070354D02*
X150225618Y-109009878D01*
X150225618Y-109009878D02*
X150255856Y-108979639D01*
X150255856Y-108979639D02*
X150316332Y-108949401D01*
X150316332Y-108949401D02*
X150558237Y-108949401D01*
X149923237Y-108647020D02*
X149923237Y-109282020D01*
X149923237Y-109282020D02*
X149681332Y-109282020D01*
X149681332Y-109282020D02*
X149620856Y-109251782D01*
X149620856Y-109251782D02*
X149590618Y-109221544D01*
X149590618Y-109221544D02*
X149560380Y-109161068D01*
X149560380Y-109161068D02*
X149560380Y-109070354D01*
X149560380Y-109070354D02*
X149590618Y-109009878D01*
X149590618Y-109009878D02*
X149620856Y-108979639D01*
X149620856Y-108979639D02*
X149681332Y-108949401D01*
X149681332Y-108949401D02*
X149923237Y-108949401D01*
X149318475Y-109221544D02*
X149288237Y-109251782D01*
X149288237Y-109251782D02*
X149227761Y-109282020D01*
X149227761Y-109282020D02*
X149076570Y-109282020D01*
X149076570Y-109282020D02*
X149016094Y-109251782D01*
X149016094Y-109251782D02*
X148985856Y-109221544D01*
X148985856Y-109221544D02*
X148955618Y-109161068D01*
X148955618Y-109161068D02*
X148955618Y-109100592D01*
X148955618Y-109100592D02*
X148985856Y-109009878D01*
X148985856Y-109009878D02*
X149348713Y-108647020D01*
X149348713Y-108647020D02*
X148955618Y-108647020D01*
X148562523Y-109282020D02*
X148502046Y-109282020D01*
X148502046Y-109282020D02*
X148441570Y-109251782D01*
X148441570Y-109251782D02*
X148411332Y-109221544D01*
X148411332Y-109221544D02*
X148381094Y-109161068D01*
X148381094Y-109161068D02*
X148350856Y-109040116D01*
X148350856Y-109040116D02*
X148350856Y-108888925D01*
X148350856Y-108888925D02*
X148381094Y-108767973D01*
X148381094Y-108767973D02*
X148411332Y-108707497D01*
X148411332Y-108707497D02*
X148441570Y-108677259D01*
X148441570Y-108677259D02*
X148502046Y-108647020D01*
X148502046Y-108647020D02*
X148562523Y-108647020D01*
X148562523Y-108647020D02*
X148622999Y-108677259D01*
X148622999Y-108677259D02*
X148653237Y-108707497D01*
X148653237Y-108707497D02*
X148683475Y-108767973D01*
X148683475Y-108767973D02*
X148713713Y-108888925D01*
X148713713Y-108888925D02*
X148713713Y-109040116D01*
X148713713Y-109040116D02*
X148683475Y-109161068D01*
X148683475Y-109161068D02*
X148653237Y-109221544D01*
X148653237Y-109221544D02*
X148622999Y-109251782D01*
X148622999Y-109251782D02*
X148562523Y-109282020D01*
X147806570Y-109070354D02*
X147806570Y-108647020D01*
X147957761Y-109312259D02*
X148108951Y-108858687D01*
X148108951Y-108858687D02*
X147715856Y-108858687D01*
X147352999Y-109282020D02*
X147292522Y-109282020D01*
X147292522Y-109282020D02*
X147232046Y-109251782D01*
X147232046Y-109251782D02*
X147201808Y-109221544D01*
X147201808Y-109221544D02*
X147171570Y-109161068D01*
X147171570Y-109161068D02*
X147141332Y-109040116D01*
X147141332Y-109040116D02*
X147141332Y-108888925D01*
X147141332Y-108888925D02*
X147171570Y-108767973D01*
X147171570Y-108767973D02*
X147201808Y-108707497D01*
X147201808Y-108707497D02*
X147232046Y-108677259D01*
X147232046Y-108677259D02*
X147292522Y-108647020D01*
X147292522Y-108647020D02*
X147352999Y-108647020D01*
X147352999Y-108647020D02*
X147413475Y-108677259D01*
X147413475Y-108677259D02*
X147443713Y-108707497D01*
X147443713Y-108707497D02*
X147473951Y-108767973D01*
X147473951Y-108767973D02*
X147504189Y-108888925D01*
X147504189Y-108888925D02*
X147504189Y-109040116D01*
X147504189Y-109040116D02*
X147473951Y-109161068D01*
X147473951Y-109161068D02*
X147443713Y-109221544D01*
X147443713Y-109221544D02*
X147413475Y-109251782D01*
X147413475Y-109251782D02*
X147352999Y-109282020D01*
X146869189Y-108888925D02*
X146385380Y-108888925D01*
X146113237Y-108677259D02*
X146022523Y-108647020D01*
X146022523Y-108647020D02*
X145871332Y-108647020D01*
X145871332Y-108647020D02*
X145810856Y-108677259D01*
X145810856Y-108677259D02*
X145780618Y-108707497D01*
X145780618Y-108707497D02*
X145750380Y-108767973D01*
X145750380Y-108767973D02*
X145750380Y-108828449D01*
X145750380Y-108828449D02*
X145780618Y-108888925D01*
X145780618Y-108888925D02*
X145810856Y-108919163D01*
X145810856Y-108919163D02*
X145871332Y-108949401D01*
X145871332Y-108949401D02*
X145992285Y-108979639D01*
X145992285Y-108979639D02*
X146052761Y-109009878D01*
X146052761Y-109009878D02*
X146082999Y-109040116D01*
X146082999Y-109040116D02*
X146113237Y-109100592D01*
X146113237Y-109100592D02*
X146113237Y-109161068D01*
X146113237Y-109161068D02*
X146082999Y-109221544D01*
X146082999Y-109221544D02*
X146052761Y-109251782D01*
X146052761Y-109251782D02*
X145992285Y-109282020D01*
X145992285Y-109282020D02*
X145841094Y-109282020D01*
X145841094Y-109282020D02*
X145750380Y-109251782D01*
X145478237Y-108647020D02*
X145478237Y-109282020D01*
X145478237Y-109282020D02*
X145266570Y-108828449D01*
X145266570Y-108828449D02*
X145054904Y-109282020D01*
X145054904Y-109282020D02*
X145054904Y-108647020D01*
X144752523Y-108647020D02*
X144752523Y-109282020D01*
X144752523Y-109282020D02*
X144601333Y-109282020D01*
X144601333Y-109282020D02*
X144510618Y-109251782D01*
X144510618Y-109251782D02*
X144450142Y-109191306D01*
X144450142Y-109191306D02*
X144419904Y-109130830D01*
X144419904Y-109130830D02*
X144389666Y-109009878D01*
X144389666Y-109009878D02*
X144389666Y-108919163D01*
X144389666Y-108919163D02*
X144419904Y-108798211D01*
X144419904Y-108798211D02*
X144450142Y-108737735D01*
X144450142Y-108737735D02*
X144510618Y-108677259D01*
X144510618Y-108677259D02*
X144601333Y-108647020D01*
X144601333Y-108647020D02*
X144752523Y-108647020D01*
D12*
%TO.C,SW3*%
X102109250Y-81154250D02*
X114809250Y-81154250D01*
X102109250Y-93854250D02*
X102109250Y-81154250D01*
X114809250Y-81154250D02*
X114809250Y-93854250D01*
X114809250Y-93854250D02*
X102109250Y-93854250D01*
D13*
%TO.C,SW7*%
X120980000Y-106140000D02*
X121980000Y-105040000D01*
X120980000Y-117440000D02*
X120980000Y-106140000D01*
X121980000Y-105040000D02*
X134180000Y-105040000D01*
X124580000Y-111240000D02*
X130580000Y-111240000D01*
X127580000Y-108240000D02*
X127580000Y-114240000D01*
X134180000Y-105040000D02*
X134180000Y-117440000D01*
X134180000Y-117440000D02*
X120980000Y-117440000D01*
X130580000Y-111240000D02*
G75*
G02*
X124580000Y-111240000I-3000000J0D01*
G01*
X124580000Y-111240000D02*
G75*
G02*
X130580000Y-111240000I3000000J0D01*
G01*
D12*
%TO.C,SW2*%
X183071750Y-102585500D02*
X195771750Y-102585500D01*
X183071750Y-115285500D02*
X183071750Y-102585500D01*
X195771750Y-102585500D02*
X195771750Y-115285500D01*
X195771750Y-115285500D02*
X183071750Y-115285500D01*
%TO.C,R2*%
X123699250Y-101791750D02*
X124359250Y-101791750D01*
X131319250Y-101791750D02*
X130659250Y-101791750D01*
X124359250Y-100541750D02*
X130659250Y-100541750D01*
X130659250Y-103041750D01*
X124359250Y-103041750D01*
X124359250Y-100541750D01*
%TO.C,SW1*%
X102109250Y-102585500D02*
X114809250Y-102585500D01*
X102109250Y-115285500D02*
X102109250Y-102585500D01*
X114809250Y-102585500D02*
X114809250Y-115285500D01*
X114809250Y-115285500D02*
X102109250Y-115285500D01*
D13*
%TO.C,SW5*%
X163960000Y-106040000D02*
X164960000Y-104940000D01*
X163960000Y-117340000D02*
X163960000Y-106040000D01*
X164960000Y-104940000D02*
X177160000Y-104940000D01*
X167560000Y-111140000D02*
X173560000Y-111140000D01*
X170560000Y-108140000D02*
X170560000Y-114140000D01*
X177160000Y-104940000D02*
X177160000Y-117340000D01*
X177160000Y-117340000D02*
X163960000Y-117340000D01*
X173560000Y-111140000D02*
G75*
G02*
X167560000Y-111140000I-3000000J0D01*
G01*
X167560000Y-111140000D02*
G75*
G02*
X173560000Y-111140000I3000000J0D01*
G01*
D12*
%TO.C,R1*%
X166561750Y-101791750D02*
X167221750Y-101791750D01*
X174181750Y-101791750D02*
X173521750Y-101791750D01*
X167221750Y-100541750D02*
X173521750Y-100541750D01*
X173521750Y-103041750D01*
X167221750Y-103041750D01*
X167221750Y-100541750D01*
%TO.C,SW4*%
X183071750Y-81438000D02*
X195771750Y-81438000D01*
X183071750Y-94138000D02*
X183071750Y-81438000D01*
X195771750Y-81438000D02*
X195771750Y-94138000D01*
X195771750Y-94138000D02*
X183071750Y-94138000D01*
%TO.C,U1*%
X157840500Y-119485500D02*
X140040500Y-119485500D01*
X140040500Y-98510500D01*
X157840500Y-98510500D01*
X157840500Y-119485500D01*
D14*
X156996500Y-118361500D02*
G75*
G02*
X156492500Y-118361500I-252000J0D01*
G01*
X156492500Y-118361500D02*
G75*
G02*
X156996500Y-118361500I252000J0D01*
G01*
%TD*%
M02*
