%TF.GenerationSoftware,KiCad,Pcbnew,9.0.6*%
%TF.CreationDate,2025-12-07T01:16:21-05:00*%
%TF.ProjectId,Kigan's Lifeboard,4b696761-6e27-4732-904c-696665626f61,rev?*%
%TF.SameCoordinates,Original*%
%TF.FileFunction,OtherDrawing,Comment*%
%FSLAX46Y46*%
G04 Gerber Fmt 4.6, Leading zero omitted, Abs format (unit mm)*
G04 Created by KiCad (PCBNEW 9.0.6) date 2025-12-07 01:16:21*
%MOMM*%
%LPD*%
G01*
G04 APERTURE LIST*
%ADD10C,0.150000*%
%ADD11C,0.120000*%
G04 APERTURE END LIST*
D10*
%TO.C,SW3*%
X98934250Y-77979250D02*
X117984250Y-77979250D01*
X98934250Y-97029250D02*
X98934250Y-77979250D01*
X117984250Y-77979250D02*
X117984250Y-97029250D01*
X117984250Y-97029250D02*
X98934250Y-97029250D01*
D11*
%TO.C,J1*%
X129806750Y-80218000D02*
X129806750Y-92218000D01*
X129806750Y-80218000D02*
X167806750Y-80218000D01*
X135556750Y-80218000D02*
X135556750Y-92218000D01*
X136866750Y-82438000D02*
X136866750Y-87958000D01*
X136866750Y-82438000D02*
X159246750Y-82438000D01*
X136866750Y-87958000D02*
X159246750Y-87958000D01*
X159246750Y-87958000D02*
X159246750Y-82438000D01*
X165556750Y-80218000D02*
X165556750Y-92218000D01*
X167806750Y-80218000D02*
X167806750Y-92218000D01*
X167806750Y-92218000D02*
X129806750Y-92218000D01*
D10*
%TO.C,SW2*%
X179896750Y-99410500D02*
X198946750Y-99410500D01*
X179896750Y-118460500D02*
X179896750Y-99410500D01*
X198946750Y-99410500D02*
X198946750Y-118460500D01*
X198946750Y-118460500D02*
X179896750Y-118460500D01*
%TO.C,SW1*%
X98934250Y-99410500D02*
X117984250Y-99410500D01*
X98934250Y-118460500D02*
X98934250Y-99410500D01*
X117984250Y-99410500D02*
X117984250Y-118460500D01*
X117984250Y-118460500D02*
X98934250Y-118460500D01*
%TO.C,SW4*%
X179896750Y-78263000D02*
X198946750Y-78263000D01*
X179896750Y-97313000D02*
X179896750Y-78263000D01*
X198946750Y-78263000D02*
X198946750Y-97313000D01*
X198946750Y-97313000D02*
X179896750Y-97313000D01*
%TD*%
M02*
