M48
; DRILL file {KiCad 9.0.6} date 2025-12-07T00:55:32-0500
; FORMAT={-:-/ absolute / metric / decimal}
; #@! TF.CreationDate,2025-12-07T00:55:32-05:00
; #@! TF.GenerationSoftware,Kicad,Pcbnew,9.0.6
; #@! TF.FileFunction,Plated,1,2,PTH
FMAT,2
METRIC
; #@! TA.AperFunction,Plated,PTH,ComponentDrill
T1C0.800
; #@! TA.AperFunction,Plated,PTH,ComponentDrill
T2C0.889
; #@! TA.AperFunction,Plated,PTH,ComponentDrill
T3C1.000
; #@! TA.AperFunction,Plated,PTH,ComponentDrill
T4C1.500
; #@! TA.AperFunction,Plated,PTH,ComponentDrill
T5C2.000
%
G90
G05
T1
X123.699Y-101.792
X131.319Y-101.792
X166.562Y-101.792
X174.182Y-101.792
T2
X141.32Y-101.316
X141.32Y-103.855
X141.32Y-106.395
X141.32Y-108.935
X141.32Y-111.475
X141.32Y-114.015
X141.32Y-116.555
X156.56Y-101.316
X156.56Y-103.855
X156.56Y-106.395
X156.56Y-108.935
X156.56Y-111.475
X156.56Y-114.015
X156.56Y-116.555
T3
X120.08Y-108.74
X120.08Y-111.24
X120.08Y-113.74
X131.407Y-82.398
X131.407Y-84.938
X131.407Y-87.478
X131.407Y-90.018
X134.58Y-108.74
X134.58Y-113.74
X163.06Y-108.64
X163.06Y-111.14
X163.06Y-113.64
X177.56Y-108.64
X177.56Y-113.64
T4
X104.649Y-84.964
X104.649Y-106.395
X110.999Y-82.424
X110.999Y-103.855
X185.612Y-85.248
X185.612Y-106.395
X191.962Y-82.708
X191.962Y-103.855
T5
G00X127.33Y-105.64
M15
G01X127.83Y-105.64
M16
G05
G00X127.33Y-116.84
M15
G01X127.83Y-116.84
M16
G05
G00X170.31Y-105.54
M15
G01X170.81Y-105.54
M16
G05
G00X170.31Y-116.74
M15
G01X170.81Y-116.74
M16
G05
M30
