%TF.GenerationSoftware,KiCad,Pcbnew,9.0.6*%
%TF.CreationDate,2025-12-07T01:04:57-05:00*%
%TF.ProjectId,Kigan's Lifeboard,4b696761-6e27-4732-904c-696665626f61,rev?*%
%TF.SameCoordinates,Original*%
%TF.FileFunction,Plated,1,2,PTH,Mixed*%
%TF.FilePolarity,Positive*%
%FSLAX46Y46*%
G04 Gerber Fmt 4.6, Leading zero omitted, Abs format (unit mm)*
G04 Created by KiCad (PCBNEW 9.0.6) date 2025-12-07 01:04:57*
%MOMM*%
%LPD*%
G01*
G04 APERTURE LIST*
%TA.AperFunction,ComponentDrill*%
%ADD10C,0.800000*%
%TD*%
%TA.AperFunction,ComponentDrill*%
%ADD11C,0.889000*%
%TD*%
%TA.AperFunction,ComponentDrill*%
%ADD12C,1.000000*%
%TD*%
%TA.AperFunction,ComponentDrill*%
%ADD13C,1.500000*%
%TD*%
G04 aperture for slot hole*
%TA.AperFunction,ComponentDrill*%
%ADD14C,2.000000*%
%TD*%
G04 APERTURE END LIST*
D10*
%TO.C,R2*%
X123699250Y-101791750D03*
X131319250Y-101791750D03*
%TO.C,R1*%
X166561750Y-101791750D03*
X174181750Y-101791750D03*
D11*
%TO.C,U1*%
X141320500Y-101315500D03*
X141320500Y-103855500D03*
X141320500Y-106395500D03*
X141320500Y-108935500D03*
X141320500Y-111475500D03*
X141320500Y-114015500D03*
X141320500Y-116555500D03*
X156560500Y-101315500D03*
X156560500Y-103855500D03*
X156560500Y-106395500D03*
X156560500Y-108935500D03*
X156560500Y-111475500D03*
X156560500Y-114015500D03*
X156560500Y-116555500D03*
D12*
%TO.C,SW7*%
X120080000Y-108740000D03*
X120080000Y-111240000D03*
X120080000Y-113740000D03*
%TO.C,J1*%
X131406750Y-82398000D03*
X131406750Y-84938000D03*
X131406750Y-87478000D03*
X131406750Y-90018000D03*
%TO.C,SW7*%
X134580000Y-108740000D03*
X134580000Y-113740000D03*
%TO.C,SW5*%
X163060000Y-108640000D03*
X163060000Y-111140000D03*
X163060000Y-113640000D03*
X177560000Y-108640000D03*
X177560000Y-113640000D03*
D13*
%TO.C,SW3*%
X104649250Y-84964250D03*
%TO.C,SW1*%
X104649250Y-106395500D03*
%TO.C,SW3*%
X110999250Y-82424250D03*
%TO.C,SW1*%
X110999250Y-103855500D03*
%TO.C,SW4*%
X185611750Y-85248000D03*
%TO.C,SW2*%
X185611750Y-106395500D03*
%TO.C,SW4*%
X191961750Y-82708000D03*
%TO.C,SW2*%
X191961750Y-103855500D03*
D14*
%TO.C,SW7*%
X127830000Y-105640000D02*
X127330000Y-105640000D01*
X127830000Y-116840000D02*
X127330000Y-116840000D01*
%TO.C,SW5*%
X170810000Y-105540000D02*
X170310000Y-105540000D01*
X170810000Y-116740000D02*
X170310000Y-116740000D01*
M02*
